<svg xmlns="http://www.w3.org/2000/svg" width="54" height="30" fill="none" viewBox="0 0 54 30"><path fill="url(#a)" d="M13.789 5.137v18.157c0 .123.097.224.224.224h3.066a.223.223 0 0 0 .224-.224V5.137a.223.223 0 0 0-.224-.224h-3.066a.223.223 0 0 0-.224.224M4.202 13.83c0-.59.832-1.02 2.101-1.02 1.45 0 2.81.514 3.66 1.237a.33.33 0 0 0 .5-.087l1.034-2.058a.316.316 0 0 0-.087-.412c-1.28-.962-2.998-1.652-5.139-1.652C2.763 9.838.8 11.798.8 14.04c0 5.225 7.927 3.417 7.927 5.717 0 .629-.72 1.161-2.238 1.161s-3.295-.593-4.329-1.42a.334.334 0 0 0-.488.086L.5 21.554a.315.315 0 0 0 .065.405c1.417 1.19 3.55 1.891 5.764 1.891 3.7 0 5.775-1.822 5.775-4.281 0-5.262-7.901-3.638-7.901-5.74zm15.54-3.764V23.29c0 .123.096.224.223.224h3.066a.223.223 0 0 0 .225-.224V10.066a.223.223 0 0 0-.225-.225h-3.066a.225.225 0 0 0-.224.225M34.672 23.29c0 .123.098.224.224.224h3.067a.223.223 0 0 0 .224-.224v-8.654c0-2.6-1.899-4.813-4.832-4.813-2.187 0-3.66 1.1-4.184 2.076v-1.83a.223.223 0 0 0-.224-.224H25.88a.223.223 0 0 0-.224.224v13.225c0 .123.097.224.224.224h3.067a.223.223 0 0 0 .224-.224v-7.262c0-1.62 1.19-3.077 2.871-3.077 1.429 0 2.633.745 2.633 2.597v7.738zm6.003 3.722a.23.23 0 0 0 .043.285c1.62 1.37 3.381 1.866 5.609 1.866 3.29 0 7.218-1.48 7.218-6.567v-12.22a.223.223 0 0 0-.224-.224h-3.1a.223.223 0 0 0-.223.224v1.494c-.865-1.41-2.359-2.048-3.964-2.048-3.374 0-6.05 2.857-6.05 7.226 0 3.627 2.55 6.802 6.05 6.802 1.657 0 2.915-.774 3.964-2.1v.932c0 2.625-1.99 3.606-3.678 3.606-1.587 0-2.93-.416-3.981-1.458a.223.223 0 0 0-.344.04l-1.324 2.14h.004zm6.314-6.709c-1.988 0-3.373-1.338-3.373-3.638s1.381-3.718 3.373-3.718c1.823 0 3.017 1.725 3.017 3.718s-1.194 3.638-3.017 3.638m5.066 8.86h.18v-.688h.25v-.159h-.676v.16h.25v.687zm1.197-.336.108-.271v.608h.181v-.847h-.253l-.207.528-.206-.528h-.253v.847h.18v-.608l.24.608h.075zM19.401 4.569a2.13 2.13 0 0 1 4.257.047c-.015 1.147-.977 2.119-2.152 2.105a2.15 2.15 0 0 1-2.105-2.152m6.448 2.123c.448-.756.575-1.574.582-2.134a4.3 4.3 0 0 0-.535-2.144c-.069-.123.05-.188.16-.163 1.059.271 1.836 1.212 1.829 2.318v.015c-.019 1.106-.814 2.029-1.877 2.275-.108.025-.231-.043-.159-.166zm3.95.842c.629-1.055.802-2.194.813-2.976.011-.78-.141-1.924-.748-2.994-.098-.177.072-.264.224-.228 1.475.376 2.564 1.686 2.553 3.233v.019c-.026 1.547-1.143 2.83-2.626 3.179-.148.032-.318-.066-.213-.232H29.8M34.575.461c1.873.474 3.247 2.134 3.24 4.097v.026c-.03 1.964-1.443 3.653-3.323 4.09-.188.047-.401-.138-.278-.355.795-1.338 1.02-2.78 1.03-3.772.008-.998-.184-2.437-.95-3.793-.124-.224.093-.336.281-.29z"/><defs><linearGradient id="a" x1="27" x2="27" y1=".454" y2="29.163" gradientUnits="userSpaceOnUse"><stop stop-color="#fff"/><stop offset="1" stop-color="#eaeaea"/></linearGradient></defs></svg>
