<?xml version="1.0" encoding="UTF-8" ?>
<!DOCTYPE svg PUBLIC "-//W3C//DTD SVG 1.1//EN" "http://www.w3.org/Graphics/SVG/1.1/DTD/svg11.dtd">
<svg width="64pt" height="64pt" viewBox="0 0 64 64" version="1.1" xmlns="http://www.w3.org/2000/svg">
<g id="#fff">
<path fill="#fff" opacity="1.00" d=" M 42.33 0.00 L 52.93 0.00 C 58.93 0.74 63.47 5.60 64.00 11.58 L 64.00 21.56 C 56.78 14.37 49.60 7.13 42.33 0.00 Z" />
<path fill="#fff" opacity="1.00" d=" M 12.14 16.10 C 17.76 9.83 25.20 5.46 33.03 2.54 C 34.95 4.46 36.87 6.37 38.79 8.29 C 37.07 9.28 35.34 10.27 33.62 11.26 C 32.47 10.18 31.33 9.09 30.18 8.00 L 29.31 9.00 C 30.29 10.05 31.26 11.11 32.24 12.17 C 30.96 13.05 29.69 13.94 28.41 14.83 C 27.16 13.77 25.90 12.72 24.57 11.75 C 24.99 13.36 25.99 14.68 26.98 15.96 C 25.84 16.88 24.71 17.80 23.57 18.73 C 22.31 17.71 21.02 16.71 19.67 15.80 C 20.33 17.28 21.21 18.64 22.14 19.97 C 21.25 20.82 20.35 21.68 19.46 22.53 C 18.20 21.61 16.93 20.70 15.61 19.87 C 16.33 21.29 17.21 22.62 18.12 23.94 C 17.27 24.84 16.42 25.75 15.57 26.66 C 14.28 25.71 13.13 24.30 11.36 24.43 C 12.36 25.67 13.41 26.86 14.47 28.03 C 13.54 29.20 12.61 30.36 11.68 31.53 C 10.86 30.88 9.20 29.58 8.37 28.92 C 8.86 30.45 9.61 31.84 10.62 33.11 C 9.66 34.72 8.70 36.34 7.74 37.96 C 5.98 36.22 4.22 34.47 2.47 32.73 C 4.76 26.72 7.78 20.88 12.14 16.10 Z" />
<path fill="#fff" opacity="1.00" d=" M 34.69 12.27 C 36.40 11.33 38.12 10.39 39.83 9.46 C 46.98 16.61 54.12 23.75 61.27 30.89 C 57.72 39.69 52.35 47.96 44.75 53.78 C 40.63 57.03 35.91 59.42 31.06 61.38 C 23.62 53.95 16.24 46.47 8.79 39.06 C 9.77 37.38 10.77 35.70 11.77 34.04 C 13.44 35.45 14.86 37.47 17.22 37.73 C 15.84 35.95 14.31 34.30 12.74 32.69 C 13.64 31.48 14.54 30.27 15.44 29.07 C 16.98 30.48 18.53 31.88 20.22 33.10 C 19.74 30.90 18.06 29.37 16.57 27.82 C 17.46 26.82 18.36 25.82 19.25 24.82 C 20.82 26.31 22.41 27.79 24.16 29.07 C 23.75 26.79 21.94 25.28 20.43 23.70 C 21.39 22.75 22.36 21.80 23.32 20.86 C 24.83 22.30 26.35 23.73 27.96 25.05 C 28.00 22.73 25.91 21.37 24.55 19.80 C 25.76 18.82 26.96 17.84 28.17 16.86 C 29.48 18.16 30.80 19.46 32.12 20.76 L 33.17 19.83 C 31.91 18.54 30.65 17.25 29.38 15.96 C 30.66 15.07 31.94 14.18 33.22 13.28 C 34.76 14.57 36.07 16.47 38.30 16.47 C 37.17 15.01 35.94 13.63 34.69 12.27 Z" />
<path fill="#fff" opacity="1.00" d=" M 0.00 42.43 C 7.20 49.64 14.40 56.86 21.66 64.00 L 11.00 64.00 C 8.34 63.26 5.51 62.43 3.51 60.40 C 1.41 58.26 0.65 55.25 0.00 52.42 L 0.00 42.43 Z" />
</g>
</svg>
