<?xml version="1.0" encoding="UTF-8" ?>
<!DOCTYPE svg PUBLIC "-//W3C//DTD SVG 1.1//EN" "http://www.w3.org/Graphics/SVG/1.1/DTD/svg11.dtd">
<svg width="64pt" height="64pt" viewBox="0 0 64 64" version="1.1" xmlns="http://www.w3.org/2000/svg">
<g id="#fff">
<path fill="#fff" opacity="1.00" d=" M 14.54 7.59 C 17.85 3.93 22.71 2.35 26.99 0.31 C 30.76 1.97 35.15 1.96 38.55 4.51 C 48.47 11.17 51.71 24.97 47.80 35.93 C 50.83 35.75 53.87 35.17 56.90 35.51 C 58.51 36.33 58.32 38.79 56.57 39.23 C 52.86 40.16 49.02 40.51 45.28 41.31 C 42.10 45.82 37.66 49.76 32.10 50.86 C 28.04 51.88 23.84 50.95 20.08 49.32 C 16.39 54.07 13.24 59.27 9.17 63.71 C 8.63 63.57 7.57 63.30 7.03 63.17 L 6.25 61.94 C 8.90 56.41 12.40 51.32 15.47 46.01 C 13.18 43.68 11.20 41.05 9.90 38.03 C 9.32 36.30 7.43 35.85 6.11 34.85 C 5.73 33.41 6.90 32.50 7.78 31.60 C 6.41 23.13 8.50 13.88 14.54 7.59 M 9.73 31.07 C 12.44 29.67 15.58 28.96 17.98 27.07 C 19.80 23.31 22.27 19.94 25.62 17.39 C 23.53 13.09 24.53 8.30 24.62 3.74 C 13.26 7.07 7.86 20.05 9.73 31.07 M 28.79 3.31 C 28.75 7.21 27.84 11.23 29.12 15.04 C 30.20 18.72 31.12 22.45 32.47 26.04 C 29.83 27.81 24.94 31.45 28.33 34.72 C 33.82 36.23 39.57 36.86 45.26 36.29 C 48.95 28.11 47.65 17.94 42.27 10.79 C 39.14 6.44 34.08 3.82 28.79 3.31 M 10.76 35.11 C 12.13 38.43 14.03 41.48 16.35 44.21 C 17.54 42.41 18.69 40.58 19.80 38.72 C 18.50 36.74 17.68 34.51 17.17 32.21 C 15.06 33.22 12.92 34.18 10.76 35.11 M 21.28 47.47 C 28.62 51.41 37.76 48.09 42.53 41.71 C 37.05 43.07 31.48 41.49 25.96 41.36 C 24.46 43.44 22.87 45.45 21.28 47.47 Z" />
<path fill="#fff" opacity="1.00" d=" M 33.38 16.28 C 36.12 14.20 40.30 16.73 40.26 20.01 C 40.39 23.26 36.19 25.97 33.48 23.82 C 30.43 22.47 30.79 17.84 33.38 16.28 Z" />
</g>
</svg>
