<?xml version="1.0" encoding="UTF-8" ?>
<!DOCTYPE svg PUBLIC "-//W3C//DTD SVG 1.1//EN" "http://www.w3.org/Graphics/SVG/1.1/DTD/svg11.dtd">
<svg width="64pt" height="64pt" viewBox="0 0 64 64" version="1.1" xmlns="http://www.w3.org/2000/svg">
<g id="#fff">
<path fill="#fff" opacity="1.00" d=" M 22.43 0.00 L 24.38 0.00 C 37.46 0.53 48.96 10.50 52.37 22.97 C 42.50 32.70 32.76 42.56 22.95 52.34 C 22.10 52.00 20.41 51.32 19.57 50.98 C 21.95 56.47 18.38 63.08 12.48 64.00 L 10.03 64.00 C 4.72 63.26 0.75 57.56 2.48 52.36 C 3.46 48.62 7.01 46.42 10.60 45.65 C 4.42 40.38 0.44 32.63 0.00 24.50 L 0.00 22.51 C -0.08 10.50 10.43 -0.02 22.43 0.00 M 7.10 18.15 C 4.85 25.99 8.10 34.61 13.92 40.05 C 14.37 39.82 15.27 39.35 15.72 39.12 C 10.89 34.12 7.32 27.12 8.84 20.02 C 9.29 16.91 11.29 14.45 13.11 12.02 L 12.86 11.07 L 11.88 10.76 C 9.44 12.50 8.02 15.37 7.10 18.15 M 8.39 48.60 C 3.76 50.39 2.76 57.31 6.79 60.26 C 10.59 63.75 17.43 61.14 18.06 56.05 C 19.14 50.87 13.15 46.23 8.39 48.60 Z" />
<path fill="#fff" opacity="1.00" d=" M 25.47 52.83 C 34.61 43.73 43.65 34.53 52.87 25.52 C 53.61 30.76 52.79 36.10 50.59 40.90 C 55.05 45.55 60.04 49.72 64.00 54.81 L 64.00 57.35 C 62.36 60.04 60.07 62.27 57.45 64.00 L 55.40 64.00 C 49.67 60.70 45.82 54.96 40.90 50.62 C 36.07 52.77 30.72 53.64 25.47 52.83 M 49.53 42.81 C 47.61 45.35 45.44 47.73 42.71 49.42 C 44.49 51.19 46.22 52.99 47.99 54.77 C 50.18 52.44 52.44 50.18 54.78 47.99 C 53.02 46.27 51.25 44.56 49.53 42.81 Z" />
</g>
</svg>
